HIERARCHY
ROOT Hips
{
	OFFSET	0.00	0.00	0.00
	CHANNELS 6 Xposition Yposition Zposition Zrotation Xrotation Yrotation
	JOINT LeftUpLeg
	{
		OFFSET	 0.126116	-0.014019	-0.065224
		CHANNELS 3 Zrotation Xrotation Yrotation
		JOINT LeftLeg
		{
			OFFSET	 0.000000	 0.000000	 0.569914
			CHANNELS 3 Zrotation Xrotation Yrotation
			JOINT LeftFoot
			{
				OFFSET	 0.000000	 0.000000	 0.544423
				CHANNELS 3 Zrotation Xrotation Yrotation
				JOINT LeftToeBase
				{
					OFFSET	 0.000000	 0.000000	 0.207117
					CHANNELS 3 Zrotation Xrotation Yrotation
					End Site
					{
						OFFSET	 0.000000	 0.000000	 0.207117
					}
				}
			}
		}
	}
	JOINT RightUpLeg
	{
		OFFSET	-0.124023	-0.008373	-0.065224
		CHANNELS 3 Zrotation Xrotation Yrotation
		JOINT RightLeg
		{
			OFFSET	 0.000000	 0.000000	 0.570047
			CHANNELS 3 Zrotation Xrotation Yrotation
			JOINT RightFoot
			{
				OFFSET	 0.000000	 0.000000	 0.544354
				CHANNELS 3 Zrotation Xrotation Yrotation
				JOINT RightToeBase
				{
					OFFSET	 0.000000	 0.000000	 0.207540
					CHANNELS 3 Zrotation Xrotation Yrotation
					End Site
					{
						OFFSET	 0.000000	 0.000000	 0.207540
					}
				}
			}
		}
	}
	JOINT Spine
	{
		OFFSET	 0.000184	-0.007763	 0.117403
		CHANNELS 3 Zrotation Xrotation Yrotation
		JOINT Spine1
		{
			OFFSET	 0.000000	 0.000000	 0.137269
			CHANNELS 3 Zrotation Xrotation Yrotation
			JOINT Spine2
			{
				OFFSET	 0.000000	 0.000000	 0.156879
				CHANNELS 3 Zrotation Xrotation Yrotation
				JOINT LeftShoulder
				{
					OFFSET	 0.080501	-0.002496	 0.160144
					CHANNELS 3 Zrotation Xrotation Yrotation
					JOINT LeftArm
					{
						OFFSET	 0.000000	 0.000000	 0.164363
						CHANNELS 3 Zrotation Xrotation Yrotation
						JOINT LeftForeArm
						{
							OFFSET	 0.000000	 0.000000	 0.364576
							CHANNELS 3 Zrotation Xrotation Yrotation
							JOINT LeftHand
							{
								OFFSET	 0.000000	 0.000000	 0.360812
								CHANNELS 3 Zrotation Xrotation Yrotation
								JOINT LeftHandIndex1
								{
									OFFSET	 0.000000	 0.000000	 0.086006
									CHANNELS 3 Zrotation Xrotation Yrotation
									JOINT LeftHandIndex2
									{
										OFFSET	 0.000000	 0.000000	 0.047236
										CHANNELS 3 Zrotation Xrotation Yrotation
										JOINT LeftHandIndex3
										{
											OFFSET	-0.004284	-0.000551	 0.038166
											CHANNELS 3 Zrotation Xrotation Yrotation
											End Site
											{
												OFFSET	-0.004284	-0.000551	 0.038166
											}
										}
									}
								}
							}
						}
					}
				}
				JOINT Neck
				{
					OFFSET	 0.000000	 0.000000	 0.176489
					CHANNELS 3 Zrotation Xrotation Yrotation
					JOINT Head
					{
						OFFSET	 0.000000	-0.001747	 0.077940
						CHANNELS 3 Zrotation Xrotation Yrotation
						End Site
						{
							OFFSET	 0.000000	-0.001747	 0.077940
						}
					}
				}
				JOINT RightShoulder
				{
					OFFSET	-0.080363	 0.000306	 0.159706
					CHANNELS 3 Zrotation Xrotation Yrotation
					JOINT RightArm
					{
						OFFSET	 0.000000	 0.000000	 0.164196
						CHANNELS 3 Zrotation Xrotation Yrotation
						JOINT RightForeArm
						{
							OFFSET	 0.000000	 0.000000	 0.365611
							CHANNELS 3 Zrotation Xrotation Yrotation
							JOINT RightHand
							{
								OFFSET	 0.000000	 0.000000	 0.360648
								CHANNELS 3 Zrotation Xrotation Yrotation
								JOINT RightHandIndex1
								{
									OFFSET	 0.000000	 0.000000	 0.069977
									CHANNELS 3 Zrotation Xrotation Yrotation
									JOINT RightHandIndex2
									{
										OFFSET	 0.000000	 0.000000	 0.052305
										CHANNELS 3 Zrotation Xrotation Yrotation
										JOINT RightHandIndex3
										{
											OFFSET	 0.009002	-0.000782	 0.042196
											CHANNELS 3 Zrotation Xrotation Yrotation
											End Site
											{
												OFFSET	 0.009002	-0.000782	 0.042196
											}
										}
									}
								}
							}
						}
					}
				}
			}
		}
	}
}
MOTION
Frames:    6
Frame Time: 0.03333334
-0.034465	 0.303182	 0.998150	 3.325488	 32.934440	-8.257476	 67.076160	-81.168910	-118.911000	 7.411429	-74.128800	 7.533057	 55.777820	 78.778540	-62.799210	-2.385832	 28.452790	-0.000001	 87.290110	-82.599650	-91.367560	-19.516780	-76.634740	-13.996800	-6.530607	 79.178630	 26.961910	 2.384659	 28.388700	-0.000001	 10.671680	 15.165860	 0.274651	-1.558998	 21.762480	 0.446076	-6.133841	-0.836182	 4.335844	-99.062130	 68.189320	 157.117600	 5.524474	-6.372203	-48.392790	-26.903670	 3.306820	-9.255708	-25.765440	-18.900840	-18.741910	-2.027600	 6.559038	 9.033609	-5.188889	 0.308190	 3.541030	-5.234859	 0.342567	 0.430617	 0.088829	 16.124190	-5.315950	-5.338089	-25.215310	-3.461936	 97.367740	 64.597360	-159.456400	-5.746404	 3.903479	 51.803750	 8.667084	 11.823910	 35.592100	 9.914647	-17.898510	 14.714660	 1.803333	 3.979147	-15.098590	 4.898592	 3.004813	-9.310344	 5.224449	 0.395017	 2.014677
-0.033178	 0.302350	 1.010352	 3.305472	 31.837020	-7.882259	 55.161090	-79.906920	-130.862700	 6.502531	-72.414720	 6.598652	 53.050060	 78.571850	-59.822480	-2.385832	 28.452790	-0.000001	 67.493350	-82.826320	-110.604500	-18.310940	-75.016110	-12.731880	-6.084511	 78.884470	 26.399870	 2.384659	 28.388700	-0.000001	 12.798810	 15.082270	 0.046047	-1.150718	 22.240020	-0.210003	-6.782622	-1.834463	 4.211481	-98.614450	 68.641610	 157.825600	 5.820804	-4.270714	-49.376670	-26.522690	 3.288934	-9.237198	-26.415580	-19.247970	-19.433240	-2.027600	 6.559038	 9.033609	-5.188889	 0.308190	 3.541030	-5.234859	 0.342567	 0.430617	-0.388264	 12.184190	-4.338312	-6.122471	-21.284620	-3.791755	 97.137030	 64.226020	-160.397300	-6.760236	 3.614248	 51.709970	 8.820459	 12.332290	 36.652430	 9.784192	-17.782370	 15.842640	 1.803333	 3.979147	-15.098590	 4.898592	 3.004813	-9.310344	 5.224449	 0.395017	 2.014677
-0.031173	 0.301394	 1.025854	 3.166072	 30.417680	-7.322752	 44.041100	-77.839910	-142.126700	 5.622749	-70.224270	 5.685524	 49.783250	 78.310930	-56.258620	-2.385832	 28.452790	-0.000001	 43.793420	-81.891770	-133.671300	-17.150540	-72.858430	-11.485510	-5.511682	 78.516450	 25.666040	 2.384659	 28.388700	-0.000001	 15.092940	 14.961780	-0.183639	-0.724037	 22.674030	-0.849147	-7.435152	-3.098446	 3.937490	-97.847750	 69.655650	 158.710500	 6.630630	-1.144852	-50.561680	-25.977090	 3.255186	-9.199622	-27.248460	-19.700020	-20.621240	-2.027600	 6.559038	 9.033609	-5.188889	 0.308190	 3.541030	-5.234859	 0.342567	 0.430617	-0.822403	 6.817937	-3.160944	-6.879241	-16.002800	-4.078004	 96.811420	 64.216570	-161.249800	-8.107837	 4.122192	 51.168850	 8.491142	 12.755440	 38.187260	 9.536168	-17.526450	 16.855340	 1.803333	 3.979147	-15.098590	 4.898592	 3.004813	-9.310344	 5.224449	 0.395017	 2.014677
-0.028695	 0.300102	 1.042462	 2.953408	 28.873670	-6.646009	 35.771380	-75.264360	-150.640700	 5.055968	-67.868710	 5.071499	 46.665690	 78.029820	-52.881510	-2.385833	 28.452760	 0.000004	 25.761260	-79.724440	-151.090400	-16.293910	-70.413750	-10.517430	-4.891464	 78.129370	 24.920220	 2.384659	 28.388700	-0.000001	 17.163140	 14.800030	-0.390585	-0.301628	 22.940330	-1.406696	-7.945319	-4.383039	 3.603807	-96.670360	 71.490700	 159.577200	 7.767149	 2.744985	-52.134390	-25.329080	 3.205391	-9.141399	-28.186270	-20.226340	-21.985540	-2.027600	 6.559038	 9.033609	-5.188889	 0.308190	 3.541030	-5.234859	 0.342567	 0.430617	-1.117613	 0.947644	-2.344058	-7.363655	-10.295870	-3.945292	 96.260900	 65.016870	-162.023600	-9.515027	 5.775900	 50.685930	 7.688214	 13.045540	 40.174920	 9.384755	-17.559870	 17.646490	 1.803333	 3.979147	-15.098590	 4.898592	 3.004813	-9.310344	 5.224449	 0.395017	 2.014677
-0.026111	 0.298509	 1.057737	 2.757657	 27.474750	-5.928314	 30.339130	-72.752820	-156.364900	 4.836463	-65.700040	 4.789878	 44.063120	 77.747710	-50.098540	-2.385833	 28.452750	 0.000004	 14.999100	-77.137700	-161.329400	-15.721820	-68.032060	-9.823213	-4.284451	 77.762170	 24.279300	 2.384659	 28.388700	-0.000001	 18.829390	 14.637780	-0.609374	 0.091689	 23.119360	-1.914384	-8.277181	-5.531600	 3.317784	-95.176170	 73.871900	 160.223800	 8.679355	 6.552171	-52.122220	-24.436420	 5.357625	-12.228060	-29.096760	-20.778150	-23.171260	-2.027600	 6.559038	 9.033609	-5.188889	 0.308190	 3.541030	-5.234859	 0.342567	 0.430617	-1.336647	-4.471891	-2.146009	-7.580037	-5.083186	-3.329366	 95.498860	 66.483280	-162.811600	-10.787310	 8.134387	 50.740890	 6.750557	 13.216020	 42.218540	 9.430845	-18.065050	 18.287300	 1.803333	 3.979147	-15.098590	 4.898592	 3.004813	-9.310344	 5.224449	 0.395017	 2.014677
-0.022898	 0.295346	 1.076084	 2.622665	 25.750540	-5.014953	 25.227670	-69.556770	-161.804600	 4.848150	-63.092640	 4.697437	 40.733050	 77.346950	-46.635400	-2.385833	 28.452750	 0.000004	 6.592124	-73.510860	-169.117600	-13.658890	-65.166820	-7.735501	-4.054304	 77.482940	 23.322340	 2.384659	 28.388700	-0.000001	 20.493960	 14.391610	-0.891989	 0.482058	 23.304220	-2.507771	-8.521657	-6.961136	 3.008549	-93.257910	 76.627700	 160.946200	 10.224430	 10.501100	-51.814990	-23.007900	 8.250184	-16.709080	-29.633830	-21.346140	-24.545380	-2.027600	 6.559038	 9.033609	-5.188889	 0.308190	 3.541030	-5.234859	 0.342567	 0.430617	-1.603015	-11.533690	-2.524648	-7.743566	 1.558775	-2.170199	 94.555840	 68.353480	-163.752300	-12.577430	 10.829750	 50.872890	 5.614489	 13.436020	 44.934810	 9.456141	-18.695100	 18.683190	 1.803333	 3.979147	-15.098590	 4.898592	 3.004813	-9.310344	 5.224449	 0.395017	 2.014677
